<svg data-name="Layer 2" xmlns="http://www.w3.org/2000/svg" xmlns:xlink="http://www.w3.org/1999/xlink" viewBox="0 0 720 720"><defs><linearGradient id="a" x1="360" y1="720" x2="360" y2="0" gradientUnits="userSpaceOnUse"><stop offset="0" stop-color="#a657ff"/><stop offset=".185" stop-color="#9251ec"/><stop offset=".51" stop-color="#7549d0"/><stop offset=".793" stop-color="#6444bf"/><stop offset="1" stop-color="#5e43ba"/></linearGradient><linearGradient id="b" x1="360" y1="159.153" x2="360" y2="703.612" gradientUnits="userSpaceOnUse"><stop offset="0" stop-color="#d457ff"/><stop offset="1" stop-color="#ff97f1"/></linearGradient><linearGradient id="c" x1="360" x2="360" xlink:href="#a"/></defs><circle cx="360" cy="360" r="360" fill="url(#a)"/><path d="M437.302 703.612H282.698c-42.824 0-77.861-35.037-77.861-77.861V473.845c0-42.824 35.037-77.862 77.861-77.862h154.604c42.824 0 77.861 35.038 77.861 77.862V625.75c0 42.824-35.037 77.861-77.861 77.861zM360 159.153c-59.88 0-108.423 48.543-108.423 108.424S300.12 376 360 376s108.423-48.543 108.423-108.423S419.88 159.153 360 159.153z" fill="url(#b)"/><path d="M360 0C161.178 0 0 161.178 0 360s161.178 360 360 360 360-161.178 360-360S558.822 0 360 0zm0 667.993c-170.097 0-307.988-137.89-307.988-307.988S189.902 52.016 360 52.016s307.988 137.891 307.988 307.989S530.098 667.993 360 667.993z" fill="url(#c)"/></svg>